<svg width="24" height="24" viewBox="0 0 24 24" xmlns="http://www.w3.org/2000/svg">
    <g fill="none" fill-rule="evenodd">
        <g stroke="#3F4042">
            <path d="M2.75 2.25h6v6.5h-6.5v-6a.5.5 0 0 1 .5-.5z" fill="#E7E7E7"/>
            <path d="M8.75 2.25h6.5v6.5h-6.5z"/>
            <path d="M15.25 2.25h6a.5.5 0 0 1 .5.5v6h-6.5v-6.5z" fill="#E7E7E7"/>
            <path d="M2.25 8.75h6.5v6.5h-6.5z"/>
            <path fill="#E7E7E7" d="M8.75 8.75h6.5v6.5h-6.5z"/>
            <path d="M15.25 8.75h6.5v6.5h-6.5z"/>
            <path d="M2.25 15.25h6.5v6.5h-6a.5.5 0 0 1-.5-.5v-6z" fill="#E7E7E7"/>
            <path d="M8.75 15.25h6.5v6.5h-6.5z"/>
            <path d="M15.25 15.25h6.5v6a.5.5 0 0 1-.5.5h-6v-6.5z" fill="#E7E7E7"/>
        </g>
    </g>
</svg>
