<svg width="24" height="24" viewBox="0 0 24 24" xmlns="http://www.w3.org/2000/svg">
    <g transform="translate(2 1.5)" fill="none" fill-rule="evenodd">
        <path d="M20 8.5V20a.5.5 0 0 1-.5.5H.5A.5.5 0 0 1 0 20V6.5" stroke="#3F4042" stroke-linecap="round"/>
        <g transform="translate(3 9.5)" fill="#3F4042">
            <circle cx="1" cy="6.5" r="1"/>
            <circle cx="4" cy="1.5" r="1"/>
            <circle cx="5" cy="6.5" r="1"/>
            <circle cx="8.5" cy="1.5" r="1.5"/>
            <circle cx="9" cy="6.5" r="1"/>
            <circle cx="13" cy="1.5" r="1"/>
        </g>
        <path d="M0 4.5V3a.5.5 0 0 1 .5-.5h19a.5.5 0 0 1 .5.5v3.5H0" stroke="#3F4042" fill="#E7E7E7" stroke-linecap="round"/>
        <rect fill="#3F4042" x="4" width="1" height="4.5" rx=".5"/>
        <rect fill="#3F4042" x="15" width="1" height="4.5" rx=".5"/>
    </g>
</svg>
