<svg width="24" height="24" viewBox="0 0 24 24" xmlns="http://www.w3.org/2000/svg">
    <g fill="none" fill-rule="evenodd">
        <path fill="#D3D4F4" d="M4 10.805 5.01 10l2.338 2 2.286-2 2.37 2 2.37-2 2.364 2 2.293-2 .969.805v4.027l-.906-.835-2.482 2-2.271-1.999-2.323 2-2.307-2L7.255 16l-2.283-1.975-.972.808z"/>
        <path stroke="#4E55D5" stroke-linejoin="round" d="M4 11.393 5.512 10l2.172 2 2.171-2 2.171 2 2.172-2 2.171 2 2.171-2L20 11.345M4 15.393 5.512 14l2.172 2 2.171-2 2.171 2 2.172-2 2.171 2 2.171-2L20 15.345"/>
        <path d="M4 8v6a8 8 0 1 0 16 0V7a1 1 0 0 0-1-1H5a1 1 0 0 1-1-1V3a1 1 0 0 1 1-1h14a1 1 0 0 1 1 1v1h0H5.968" stroke="#4E55D5" stroke-linecap="round" stroke-linejoin="round"/>
    </g>
</svg>
