<svg width="24" height="24" viewBox="0 0 24 24" xmlns="http://www.w3.org/2000/svg">
    <g fill="none" fill-rule="evenodd">
        <g stroke="#4E55D5">
            <path d="M20 16a6 6 0 0 1-6 6H5a1 1 0 0 1-1-1v-2h0" stroke-linecap="round"/>
            <path d="M17.237 17.053c-.934.6-2.045.947-3.237.947H6M17.237 19.053c-.934.6-2.045.947-3.237.947H6" stroke-linecap="round"/>
            <path d="M4 14V3a1 1 0 0 1 1-1h9c3.314 0 6 3.5 6 7s-2.686 7-6 7H5a1 1 0 0 0-1 1v2h0" stroke-linecap="round"/>
            <path fill="#D3D4F4" stroke-linejoin="round" d="M7 5h8v4H7z"/>
            <path stroke-linecap="round" d="M7 12h8"/>
        </g>
    </g>
</svg>
