<svg width="24" height="24" viewBox="0 0 24 24" xmlns="http://www.w3.org/2000/svg">
    <g transform="translate(2 2)" fill="none" fill-rule="evenodd">
        <path d="M10 0c4.609 0 7.776 2.333 9.5 7H.5C2.224 2.333 5.391 0 10 0z" fill="#E7E7E7"/>
        <path d="M2.5 7.009h17.045C18.273 2.947 14.48 0 10 0 4.477 0 0 4.477 0 10s4.477 10 10 10 10-4.477 10-10c0-.333-.016-.662-.048-.986" stroke="#3F4042" stroke-linecap="round"/>
        <circle fill="#3F4042" cx="6" cy="10" r="1"/>
        <circle fill="#3F4042" cx="14" cy="10" r="1"/>
        <path d="M10 17a3 3 0 0 0 3-3H7a3 3 0 0 0 3 3z" stroke="#3F4042" fill="#E7E7E7"/>
    </g>
</svg>
